<?xml version="1.0" encoding="UTF-8" standalone="no"?><!-- Generator: Gravit.io --><svg xmlns="http://www.w3.org/2000/svg" xmlns:xlink="http://www.w3.org/1999/xlink" style="isolation:isolate" viewBox="0 0 1080 1080" width="1080pt" height="1080pt"><defs><clipPath id="_clipPath_dsnz5ZQipMBbxOyzQNNsquwUA72meYQ0"><rect width="1080" height="1080"/></clipPath></defs><g clip-path="url(#_clipPath_dsnz5ZQipMBbxOyzQNNsquwUA72meYQ0)"><g><linearGradient id="_lgradient_0" x1="0" y1="0.5" x2="1" y2="0.5" gradientTransform="matrix(38.794,45.771,-45.771,38.794,65.488,442.717)" gradientUnits="userSpaceOnUse"><stop offset="2.5%" stop-opacity="1" style="stop-color:rgb(178,50,204)"/><stop offset="100%" stop-opacity="1" style="stop-color:rgb(96,35,130)"/></linearGradient><path d=" M 42.603 462.114 C 55.234 451.409 74.18 452.972 84.886 465.603 C 95.591 478.234 94.028 497.18 81.397 507.886 C 68.766 518.591 49.82 517.028 39.114 504.397 C 28.409 491.766 29.972 472.82 42.603 462.114 Z " fill="url(#_lgradient_0)"/><linearGradient id="_lgradient_1" x1="0" y1="0.5" x2="1" y2="0.5" gradientTransform="matrix(37.938,44.761,-44.761,37.938,127.416,415.656)" gradientUnits="userSpaceOnUse"><stop offset="2.5%" stop-opacity="1" style="stop-color:rgb(178,50,204)"/><stop offset="100%" stop-opacity="1" style="stop-color:rgb(96,35,130)"/></linearGradient><path d=" M 105.036 434.625 C 117.388 424.155 135.916 425.684 146.386 438.036 C 156.855 450.388 155.326 468.916 142.974 479.386 C 130.622 489.855 112.094 488.326 101.625 475.974 C 91.155 463.622 92.684 445.094 105.036 434.625 Z " fill="url(#_lgradient_1)"/><linearGradient id="_lgradient_2" x1="0" y1="0.5" x2="1" y2="0.5" gradientTransform="matrix(37.938,44.761,-44.761,37.938,186.082,392.318)" gradientUnits="userSpaceOnUse"><stop offset="2.5%" stop-opacity="1" style="stop-color:rgb(178,50,204)"/><stop offset="100%" stop-opacity="1" style="stop-color:rgb(96,35,130)"/></linearGradient><path d=" M 163.702 411.287 C 176.054 400.817 194.582 402.346 205.051 414.698 C 215.52 427.05 213.992 445.578 201.64 456.048 C 189.288 466.517 170.76 464.988 160.29 452.636 C 149.821 440.284 151.35 421.756 163.702 411.287 Z " fill="url(#_lgradient_2)"/><linearGradient id="_lgradient_3" x1="0" y1="0.5" x2="1" y2="0.5" gradientTransform="matrix(37.938,44.761,-44.761,37.938,244.748,371.318)" gradientUnits="userSpaceOnUse"><stop offset="2.5%" stop-opacity="1" style="stop-color:rgb(178,50,204)"/><stop offset="100%" stop-opacity="1" style="stop-color:rgb(96,35,130)"/></linearGradient><path d=" M 222.367 390.287 C 234.719 379.817 253.247 381.346 263.717 393.698 C 274.186 406.05 272.657 424.578 260.305 435.048 C 247.953 445.517 229.425 443.988 218.956 431.636 C 208.487 419.284 210.015 400.756 222.367 390.287 Z " fill="url(#_lgradient_3)"/><linearGradient id="_lgradient_4" x1="0" y1="0.5" x2="1" y2="0.5" gradientTransform="matrix(40.957,48.323,-48.323,40.957,312.016,346.693)" gradientUnits="userSpaceOnUse"><stop offset="2.5%" stop-opacity="1" style="stop-color:rgb(178,50,204)"/><stop offset="100%" stop-opacity="1" style="stop-color:rgb(96,35,130)"/></linearGradient><path d=" M 287.854 367.171 C 301.189 355.869 321.192 357.519 332.494 370.854 C 343.797 384.189 342.147 404.192 328.811 415.494 C 315.476 426.797 295.474 425.147 284.171 411.811 C 272.869 398.476 274.519 378.474 287.854 367.171 Z " fill="url(#_lgradient_4)"/><linearGradient id="_lgradient_5" x1="0" y1="0.5" x2="1" y2="0.5" gradientTransform="matrix(40.957,48.323,-48.323,40.957,375.35,321.693)" gradientUnits="userSpaceOnUse"><stop offset="2.5%" stop-opacity="1" style="stop-color:rgb(178,50,204)"/><stop offset="100%" stop-opacity="1" style="stop-color:rgb(96,35,130)"/></linearGradient><path d=" M 351.189 342.171 C 364.524 330.869 384.526 332.519 395.829 345.854 C 407.131 359.189 405.481 379.192 392.146 390.494 C 378.811 401.797 358.808 400.147 347.506 386.811 C 336.203 373.476 337.853 353.474 351.189 342.171 Z " fill="url(#_lgradient_5)"/></g><g><linearGradient id="_lgradient_6" x1="0" y1="0.5" x2="1" y2="0.5" gradientTransform="matrix(30.356,57.707,-57.707,30.356,551.677,289.333)" gradientUnits="userSpaceOnUse"><stop offset="2.5%" stop-opacity="1" style="stop-color:rgb(178,50,204)"/><stop offset="100%" stop-opacity="1" style="stop-color:rgb(96,35,130)"/></linearGradient><path d=" M 522.824 304.511 C 538.748 296.134 558.478 302.261 566.855 318.186 C 575.232 334.111 569.104 353.84 553.18 362.217 C 537.255 370.594 517.526 364.467 509.149 348.542 C 500.772 332.617 506.899 312.888 522.824 304.511 Z " fill="url(#_lgradient_6)"/><linearGradient id="_lgradient_7" x1="0" y1="0.5" x2="1" y2="0.5" gradientTransform="matrix(29.272,55.646,-55.646,29.272,619.876,278.487)" gradientUnits="userSpaceOnUse"><stop offset="2.5%" stop-opacity="1" style="stop-color:rgb(178,50,204)"/><stop offset="100%" stop-opacity="1" style="stop-color:rgb(96,35,130)"/></linearGradient><path d=" M 592.054 293.123 C 607.409 285.045 626.435 290.954 634.512 306.31 C 642.59 321.666 636.681 340.691 621.325 348.769 C 605.97 356.846 586.944 350.938 578.867 335.582 C 570.789 320.226 576.698 301.201 592.054 293.123 Z " fill="url(#_lgradient_7)"/><linearGradient id="_lgradient_8" x1="0" y1="0.5" x2="1" y2="0.5" gradientTransform="matrix(29.341,55.776,-55.776,29.341,685.767,267.741)" gradientUnits="userSpaceOnUse"><stop offset="2.5%" stop-opacity="1" style="stop-color:rgb(178,50,204)"/><stop offset="100%" stop-opacity="1" style="stop-color:rgb(96,35,130)"/></linearGradient><path d=" M 657.879 282.411 C 673.271 274.315 692.341 280.237 700.437 295.629 C 708.534 311.021 702.611 330.091 687.22 338.188 C 671.828 346.284 652.758 340.362 644.661 324.97 C 636.564 309.578 642.487 290.508 657.879 282.411 Z " fill="url(#_lgradient_8)"/><linearGradient id="_lgradient_9" x1="0" y1="0.5" x2="1" y2="0.5" gradientTransform="matrix(27.317,51.929,-51.929,27.317,748.646,265.401)" gradientUnits="userSpaceOnUse"><stop offset="2.5%" stop-opacity="1" style="stop-color:rgb(178,50,204)"/><stop offset="100%" stop-opacity="1" style="stop-color:rgb(96,35,130)"/></linearGradient><path d=" M 722.681 279.06 C 737.012 271.522 754.766 277.036 762.304 291.366 C 769.842 305.696 764.328 323.451 749.998 330.989 C 735.668 338.527 717.913 333.013 710.375 318.683 C 702.837 304.352 708.351 286.598 722.681 279.06 Z " fill="url(#_lgradient_9)"/><linearGradient id="_lgradient_10" x1="0" y1="0.5" x2="1" y2="0.5" gradientTransform="matrix(29.605,56.278,-56.278,29.605,819.063,251.218)" gradientUnits="userSpaceOnUse"><stop offset="2.5%" stop-opacity="1" style="stop-color:rgb(178,50,204)"/><stop offset="100%" stop-opacity="1" style="stop-color:rgb(96,35,130)"/></linearGradient><path d=" M 790.924 266.021 C 806.454 257.851 825.696 263.827 833.865 279.358 C 842.035 294.888 836.059 314.13 820.528 322.299 C 804.998 330.469 785.756 324.493 777.587 308.962 C 769.417 293.432 775.393 274.19 790.924 266.021 Z " fill="url(#_lgradient_10)"/><linearGradient id="_lgradient_11" x1="0" y1="0.5" x2="1" y2="0.5" gradientTransform="matrix(30.89,58.722,-58.722,30.89,885.96,238.898)" gradientUnits="userSpaceOnUse"><stop offset="2.5%" stop-opacity="1" style="stop-color:rgb(178,50,204)"/><stop offset="100%" stop-opacity="1" style="stop-color:rgb(96,35,130)"/></linearGradient><path d=" M 856.599 254.343 C 872.804 245.819 892.881 252.055 901.405 268.259 C 909.93 284.464 903.694 304.541 887.489 313.066 C 871.284 321.59 851.207 315.354 842.683 299.15 C 834.159 282.945 840.394 262.868 856.599 254.343 Z " fill="url(#_lgradient_11)"/></g><g><linearGradient id="_lgradient_12" x1="0" y1="0.5" x2="1" y2="0.5" gradientTransform="matrix(29.295,59.534,-59.534,29.295,1026.037,539.744)" gradientUnits="userSpaceOnUse"><stop offset="2.5%" stop-opacity="1" style="stop-color:rgb(178,50,204)"/><stop offset="100%" stop-opacity="1" style="stop-color:rgb(96,35,130)"/></linearGradient><path d=" M 996.27 554.392 C 1012.699 546.308 1032.601 553.082 1040.685 569.511 C 1048.769 585.94 1041.995 605.841 1025.566 613.926 C 1009.137 622.01 989.235 615.235 981.151 598.806 C 973.067 582.378 979.842 562.476 996.27 554.392 Z " fill="url(#_lgradient_12)"/><linearGradient id="_lgradient_13" x1="0" y1="0.5" x2="1" y2="0.5" gradientTransform="matrix(28.076,57.056,-57.056,28.076,954.332,547.256)" gradientUnits="userSpaceOnUse"><stop offset="2.5%" stop-opacity="1" style="stop-color:rgb(178,50,204)"/><stop offset="100%" stop-opacity="1" style="stop-color:rgb(96,35,130)"/></linearGradient><path d=" M 925.804 561.294 C 941.549 553.546 960.622 560.039 968.37 575.784 C 976.118 591.529 969.625 610.602 953.88 618.35 C 938.135 626.098 919.062 619.605 911.314 603.86 C 903.566 588.115 910.059 569.042 925.804 561.294 Z " fill="url(#_lgradient_13)"/><linearGradient id="_lgradient_14" x1="0" y1="0.5" x2="1" y2="0.5" gradientTransform="matrix(25.906,52.647,-52.647,25.906,888.996,560.566)" gradientUnits="userSpaceOnUse"><stop offset="2.5%" stop-opacity="1" style="stop-color:rgb(178,50,204)"/><stop offset="100%" stop-opacity="1" style="stop-color:rgb(96,35,130)"/></linearGradient><path d=" M 862.672 573.519 C 877.201 566.37 894.8 572.361 901.949 586.889 C 909.098 601.417 903.107 619.017 888.579 626.166 C 874.05 633.315 856.451 627.324 849.302 612.796 C 842.153 598.267 848.144 580.668 862.672 573.519 Z " fill="url(#_lgradient_14)"/><linearGradient id="_lgradient_15" x1="0" y1="0.5" x2="1" y2="0.5" gradientTransform="matrix(27.826,56.547,-56.547,27.826,824.952,563.553)" gradientUnits="userSpaceOnUse"><stop offset="2.5%" stop-opacity="1" style="stop-color:rgb(178,50,204)"/><stop offset="100%" stop-opacity="1" style="stop-color:rgb(96,35,130)"/></linearGradient><path d=" M 796.678 577.465 C 812.283 569.787 831.186 576.222 838.865 591.826 C 846.543 607.431 840.109 626.334 824.504 634.013 C 808.899 641.691 789.996 635.257 782.317 619.652 C 774.639 604.047 781.074 585.144 796.678 577.465 Z " fill="url(#_lgradient_15)"/><linearGradient id="_lgradient_16" x1="0" y1="0.5" x2="1" y2="0.5" gradientTransform="matrix(27.419,55.722,-55.722,27.419,760.881,572.615)" gradientUnits="userSpaceOnUse"><stop offset="2.5%" stop-opacity="1" style="stop-color:rgb(178,50,204)"/><stop offset="100%" stop-opacity="1" style="stop-color:rgb(96,35,130)"/></linearGradient><path d=" M 733.02 586.324 C 748.397 578.758 767.024 585.099 774.59 600.476 C 782.157 615.852 775.816 634.479 760.439 642.046 C 745.062 649.613 726.435 643.272 718.869 627.895 C 711.302 612.518 717.643 593.891 733.02 586.324 Z " fill="url(#_lgradient_16)"/><linearGradient id="_lgradient_17" x1="0" y1="0.5" x2="1" y2="0.5" gradientTransform="matrix(28.789,58.504,-58.504,28.789,695.391,578.52)" gradientUnits="userSpaceOnUse"><stop offset="2.5%" stop-opacity="1" style="stop-color:rgb(178,50,204)"/><stop offset="100%" stop-opacity="1" style="stop-color:rgb(96,35,130)"/></linearGradient><path d=" M 666.139 592.915 C 682.283 584.97 701.841 591.628 709.785 607.772 C 717.73 623.917 711.072 643.475 694.928 651.419 C 678.783 659.363 659.225 652.706 651.281 636.561 C 643.337 620.416 649.994 600.859 666.139 592.915 Z " fill="url(#_lgradient_17)"/></g><g><linearGradient id="_lgradient_18" x1="0" y1="0.5" x2="1" y2="0.5" gradientTransform="matrix(38.794,45.771,-45.771,38.794,203.154,739.052)" gradientUnits="userSpaceOnUse"><stop offset="2.5%" stop-opacity="1" style="stop-color:rgb(178,50,204)"/><stop offset="100%" stop-opacity="1" style="stop-color:rgb(96,35,130)"/></linearGradient><path d=" M 180.268 758.449 C 192.899 747.743 211.846 749.306 222.551 761.937 C 233.257 774.568 231.694 793.514 219.063 804.22 C 206.432 814.926 187.486 813.362 176.78 800.732 C 166.074 788.101 167.638 769.154 180.268 758.449 Z " fill="url(#_lgradient_18)"/><linearGradient id="_lgradient_19" x1="0" y1="0.5" x2="1" y2="0.5" gradientTransform="matrix(37.938,44.761,-44.761,37.938,265.082,711.99)" gradientUnits="userSpaceOnUse"><stop offset="2.5%" stop-opacity="1" style="stop-color:rgb(178,50,204)"/><stop offset="100%" stop-opacity="1" style="stop-color:rgb(96,35,130)"/></linearGradient><path d=" M 242.702 730.959 C 255.054 720.49 273.582 722.018 284.051 734.37 C 294.52 746.723 292.992 765.251 280.64 775.72 C 268.288 786.189 249.76 784.661 239.29 772.309 C 228.821 759.956 230.35 741.428 242.702 730.959 Z " fill="url(#_lgradient_19)"/><linearGradient id="_lgradient_20" x1="0" y1="0.5" x2="1" y2="0.5" gradientTransform="matrix(37.938,44.761,-44.761,37.938,323.748,688.652)" gradientUnits="userSpaceOnUse"><stop offset="2.5%" stop-opacity="1" style="stop-color:rgb(178,50,204)"/><stop offset="100%" stop-opacity="1" style="stop-color:rgb(96,35,130)"/></linearGradient><path d=" M 301.367 707.621 C 313.719 697.152 332.247 698.68 342.717 711.033 C 353.186 723.385 351.657 741.913 339.305 752.382 C 326.953 762.851 308.425 761.323 297.956 748.971 C 287.487 736.619 289.015 718.09 301.367 707.621 Z " fill="url(#_lgradient_20)"/><linearGradient id="_lgradient_21" x1="0" y1="0.5" x2="1" y2="0.5" gradientTransform="matrix(37.938,44.761,-44.761,37.938,382.413,667.652)" gradientUnits="userSpaceOnUse"><stop offset="2.5%" stop-opacity="1" style="stop-color:rgb(178,50,204)"/><stop offset="100%" stop-opacity="1" style="stop-color:rgb(96,35,130)"/></linearGradient><path d=" M 360.033 686.621 C 372.385 676.152 390.913 677.68 401.382 690.033 C 411.852 702.385 410.323 720.913 397.971 731.382 C 385.619 741.851 367.091 740.323 356.622 727.971 C 346.152 715.619 347.681 697.09 360.033 686.621 Z " fill="url(#_lgradient_21)"/><linearGradient id="_lgradient_22" x1="0" y1="0.5" x2="1" y2="0.5" gradientTransform="matrix(40.957,48.323,-48.323,40.957,449.681,643.027)" gradientUnits="userSpaceOnUse"><stop offset="2.5%" stop-opacity="1" style="stop-color:rgb(178,50,204)"/><stop offset="100%" stop-opacity="1" style="stop-color:rgb(96,35,130)"/></linearGradient><path d=" M 425.52 663.506 C 438.855 652.203 458.857 653.853 470.16 667.189 C 481.462 680.524 479.812 700.526 466.477 711.829 C 453.142 723.131 433.139 721.481 421.837 708.146 C 410.534 694.811 412.185 674.808 425.52 663.506 Z " fill="url(#_lgradient_22)"/><linearGradient id="_lgradient_23" x1="0" y1="0.5" x2="1" y2="0.5" gradientTransform="matrix(40.957,48.323,-48.323,40.957,513.016,618.027)" gradientUnits="userSpaceOnUse"><stop offset="2.5%" stop-opacity="1" style="stop-color:rgb(178,50,204)"/><stop offset="100%" stop-opacity="1" style="stop-color:rgb(96,35,130)"/></linearGradient><path d=" M 488.854 638.506 C 502.189 627.203 522.192 628.853 533.494 642.189 C 544.797 655.524 543.147 675.526 529.811 686.829 C 516.476 698.131 496.474 696.481 485.171 683.146 C 473.869 669.811 475.519 649.808 488.854 638.506 Z " fill="url(#_lgradient_23)"/></g><g><path d=" M 55.102 452.339 C 57.165 451.902 59.308 451.687 61.5 451.687 C 65.935 451.687 70.165 452.569 74.014 454.188 C 73.654 455.919 72.772 457.55 71.405 458.85 C 68.334 457.653 64.993 457 61.5 457 C 60.092 457 58.709 457.106 57.358 457.311 L 57.297 457.241 C 56.035 455.813 55.299 454.101 55.102 452.339 Z " fill-rule="evenodd" fill="rgb(247,243,29)"/><path d=" M 118.089 425.652 C 120.152 425.215 122.294 425 124.486 425 C 128.921 425 133.151 425.882 137 427.501 C 136.64 429.233 135.759 430.863 134.391 432.163 C 131.321 430.966 127.979 430.313 124.486 430.313 C 123.078 430.313 121.695 430.419 120.344 430.624 L 120.283 430.555 C 119.021 429.126 118.285 427.414 118.089 425.652 Z " fill-rule="evenodd" fill="rgb(247,243,29)"/><path d=" M 177.089 401.489 C 179.152 401.053 181.294 400.837 183.486 400.837 C 187.921 400.837 192.151 401.719 196 403.338 C 195.64 405.07 194.759 406.701 193.391 408 C 190.321 406.803 186.979 406.15 183.486 406.15 C 182.078 406.15 180.695 406.256 179.344 406.461 L 179.283 406.392 C 178.021 404.963 177.285 403.251 177.089 401.489 Z " fill-rule="evenodd" fill="rgb(247,243,29)"/><path d=" M 236.089 380.652 C 238.152 380.215 240.294 380 242.486 380 C 246.921 380 251.151 380.882 255 382.501 C 254.64 384.233 253.759 385.863 252.391 387.163 C 249.321 385.966 245.979 385.313 242.486 385.313 C 241.078 385.313 239.695 385.419 238.344 385.624 L 238.283 385.555 C 237.021 384.126 236.285 382.414 236.089 380.652 Z " fill-rule="evenodd" fill="rgb(247,243,29)"/><path d=" M 303.089 357.489 C 305.152 357.053 307.294 356.837 309.486 356.837 C 313.921 356.837 318.151 357.719 322 359.338 C 321.64 361.07 320.759 362.701 319.391 364 C 316.321 362.803 312.979 362.15 309.486 362.15 C 308.078 362.15 306.695 362.256 305.344 362.461 L 305.283 362.392 C 304.021 360.963 303.285 359.251 303.089 357.489 Z " fill-rule="evenodd" fill="rgb(247,243,29)"/><path d=" M 365.089 331.489 C 367.152 331.053 369.294 330.837 371.486 330.837 C 375.921 330.837 380.151 331.719 384 333.338 C 383.64 335.07 382.759 336.701 381.391 338 C 378.321 336.803 374.979 336.15 371.486 336.15 C 370.078 336.15 368.695 336.256 367.344 336.461 L 367.283 336.392 C 366.021 334.963 365.285 333.251 365.089 331.489 Z " fill-rule="evenodd" fill="rgb(247,243,29)"/><path d=" M 195 749.489 C 197.063 749.053 199.205 748.837 201.398 748.837 C 205.832 748.837 210.063 749.719 213.911 751.338 C 213.552 753.07 212.67 754.701 211.303 756 C 208.232 754.803 204.89 754.15 201.398 754.15 C 199.99 754.15 198.606 754.256 197.255 754.461 L 197.194 754.392 C 195.932 752.963 195.197 751.251 195 749.489 Z " fill-rule="evenodd" fill="rgb(247,243,29)"/><path d=" M 256 722.652 C 258.063 722.215 260.205 722 262.398 722 C 266.832 722 271.063 722.882 274.911 724.501 C 274.552 726.233 273.67 727.863 272.303 729.163 C 269.232 727.966 265.89 727.313 262.398 727.313 C 260.99 727.313 259.606 727.419 258.255 727.624 L 258.194 727.555 C 256.932 726.126 256.197 724.414 256 722.652 Z " fill-rule="evenodd" fill="rgb(247,243,29)"/><path d=" M 316.089 698.652 C 318.152 698.215 320.294 698 322.486 698 C 326.921 698 331.151 698.882 335 700.501 C 334.64 702.233 333.759 703.863 332.391 705.163 C 329.321 703.966 325.979 703.313 322.486 703.313 C 321.078 703.313 319.695 703.419 318.344 703.624 L 318.283 703.555 C 317.021 702.126 316.285 700.414 316.089 698.652 Z " fill-rule="evenodd" fill="rgb(247,243,29)"/><path d=" M 372.544 676.489 C 374.607 676.053 376.75 675.837 378.942 675.837 C 383.377 675.837 387.607 676.719 391.456 678.338 C 391.096 680.07 390.214 681.701 388.847 683 C 385.776 681.803 382.435 681.15 378.942 681.15 C 377.534 681.15 376.151 681.256 374.8 681.461 L 374.739 681.392 C 373.477 679.963 372.741 678.251 372.544 676.489 Z " fill-rule="evenodd" fill="rgb(247,243,29)"/><path d=" M 441.089 654.489 C 443.152 654.053 445.294 653.837 447.486 653.837 C 451.921 653.837 456.151 654.719 460 656.338 C 459.64 658.07 458.759 659.701 457.391 661 C 454.321 659.803 450.979 659.15 447.486 659.15 C 446.078 659.15 444.695 659.256 443.344 659.461 L 443.283 659.392 C 442.021 657.963 441.285 656.251 441.089 654.489 Z " fill-rule="evenodd" fill="rgb(247,243,29)"/><path d=" M 504 629.489 C 506.063 629.053 508.205 628.837 510.398 628.837 C 514.832 628.837 519.063 629.719 522.911 631.338 C 522.552 633.07 521.67 634.701 520.303 636 C 517.232 634.803 513.89 634.15 510.398 634.15 C 508.99 634.15 507.606 634.256 506.255 634.461 L 506.194 634.392 C 504.932 632.963 504.197 631.251 504 629.489 Z " fill-rule="evenodd" fill="rgb(247,243,29)"/><path d=" M 678 587.397 C 680.081 587.054 682.23 586.935 684.42 587.033 C 688.851 587.233 693.037 588.303 696.809 590.094 C 696.372 591.808 695.418 593.397 693.994 594.634 C 690.98 593.3 687.671 592.498 684.182 592.341 C 682.775 592.278 681.389 592.322 680.03 592.465 L 679.972 592.393 C 678.775 590.91 678.117 589.166 678 587.397 Z " fill-rule="evenodd" fill="rgb(247,243,29)"/><path d=" M 745.123 581.282 C 747.201 580.927 749.351 580.796 751.541 580.882 C 755.972 581.057 760.165 582.105 763.946 583.874 C 763.519 585.59 762.574 587.185 761.156 588.43 C 758.135 587.112 754.822 586.329 751.332 586.191 C 749.925 586.136 748.539 586.187 747.18 586.339 L 747.122 586.267 C 745.918 584.79 745.25 583.05 745.123 581.282 Z " fill-rule="evenodd" fill="rgb(247,243,29)"/><path d=" M 809.472 571.099 C 811.573 570.926 813.726 570.981 815.901 571.257 C 820.3 571.815 824.386 573.222 828 575.314 C 827.425 576.986 826.345 578.493 824.825 579.61 C 821.93 578.036 818.697 576.968 815.232 576.528 C 813.835 576.351 812.45 576.282 811.083 576.315 L 811.032 576.239 C 809.96 574.663 809.445 572.871 809.472 571.099 Z " fill-rule="evenodd" fill="rgb(247,243,29)"/><path d=" M 871 568.763 C 873.081 568.42 875.23 568.301 877.42 568.399 C 881.851 568.599 886.037 569.669 889.809 571.46 C 889.372 573.174 888.418 574.763 886.994 576 C 883.98 574.666 880.671 573.864 877.182 573.707 C 875.775 573.644 874.389 573.688 873.03 573.831 L 872.972 573.76 C 871.775 572.276 871.117 570.532 871 568.763 Z " fill-rule="evenodd" fill="rgb(247,243,29)"/><path d=" M 938.341 555.994 C 940.434 555.736 942.587 555.704 944.771 555.892 C 949.19 556.27 953.329 557.51 957.025 559.453 C 956.519 561.147 955.501 562.697 954.028 563.874 C 951.071 562.419 947.797 561.484 944.317 561.185 C 942.915 561.065 941.527 561.052 940.164 561.141 L 940.109 561.067 C 938.973 559.536 938.387 557.767 938.341 555.994 Z " fill-rule="evenodd" fill="rgb(247,243,29)"/><path d=" M 1010.001 548.489 C 1012.103 548.316 1014.255 548.372 1016.43 548.648 C 1020.829 549.206 1024.915 550.613 1028.529 552.704 C 1027.955 554.376 1026.874 555.883 1025.355 557 C 1022.459 555.426 1019.226 554.358 1015.761 553.918 C 1014.364 553.741 1012.979 553.672 1011.613 553.705 L 1011.561 553.629 C 1010.489 552.053 1009.974 550.262 1010.001 548.489 Z " fill-rule="evenodd" fill="rgb(247,243,29)"/><path d=" M 536 298.763 C 538.081 298.42 540.23 298.301 542.42 298.399 C 546.851 298.599 551.037 299.669 554.809 301.46 C 554.372 303.174 553.418 304.763 551.994 306 C 548.98 304.666 545.671 303.864 542.182 303.707 C 540.775 303.644 539.389 303.688 538.03 303.831 L 537.972 303.76 C 536.775 302.276 536.117 300.532 536 298.763 Z " fill-rule="evenodd" fill="rgb(247,243,29)"/><path d=" M 605.398 286.772 C 607.496 286.56 609.649 286.577 611.828 286.813 C 616.237 287.29 620.348 288.622 624 290.646 C 623.456 292.329 622.404 293.855 620.905 295 C 617.981 293.479 614.729 292.471 611.256 292.095 C 609.857 291.943 608.47 291.9 607.105 291.958 L 607.051 291.883 C 605.951 290.327 605.403 288.545 605.398 286.772 Z " fill-rule="evenodd" fill="rgb(247,243,29)"/><path d=" M 671.001 275.489 C 673.103 275.316 675.255 275.372 677.43 275.648 C 681.829 276.206 685.915 277.613 689.529 279.704 C 688.955 281.376 687.874 282.883 686.355 284 C 683.459 282.426 680.226 281.358 676.761 280.918 C 675.364 280.741 673.979 280.672 672.613 280.705 L 672.561 280.629 C 671.489 279.053 670.974 277.262 671.001 275.489 Z " fill-rule="evenodd" fill="rgb(247,243,29)"/><path d=" M 734.05 273.262 C 736.136 272.949 738.287 272.861 740.475 272.991 C 744.902 273.254 749.073 274.385 752.819 276.23 C 752.357 277.937 751.38 279.513 749.938 280.729 C 746.944 279.351 743.647 278.502 740.16 278.294 C 738.755 278.211 737.368 278.235 736.007 278.359 L 735.95 278.286 C 734.775 276.785 734.142 275.032 734.05 273.262 Z " fill-rule="evenodd" fill="rgb(247,243,29)"/><path d=" M 804.024 258.794 C 806.119 258.548 808.272 258.53 810.455 258.731 C 814.871 259.138 819.002 260.403 822.686 262.369 C 822.17 264.06 821.142 265.603 819.661 266.772 C 816.713 265.298 813.446 264.342 809.968 264.022 C 808.566 263.893 807.178 263.872 805.814 263.951 L 805.76 263.877 C 804.634 262.339 804.058 260.566 804.024 258.794 Z " fill-rule="evenodd" fill="rgb(247,243,29)"/><path d=" M 871.281 246.855 C 873.383 246.682 875.535 246.738 877.71 247.014 C 882.109 247.572 886.195 248.979 889.809 251.07 C 889.235 252.742 888.154 254.249 886.635 255.366 C 883.739 253.792 880.506 252.724 877.041 252.284 C 875.644 252.107 874.259 252.038 872.893 252.071 L 872.841 251.995 C 871.769 250.419 871.254 248.628 871.281 246.855 Z " fill-rule="evenodd" fill="rgb(247,243,29)"/></g></g></svg>